<svg id="Capa_1" enable-background="new 0 0 502.23 502.23" height="512" viewBox="0 0 502.23 502.23" width="512" xmlns="http://www.w3.org/2000/svg"><g><path d="m486.741 470.457c-35.598 1.164-71.679 2.132-107.999 3.025 5.164-34.249 7.797-69.121 6.418-103.646-.919-13.367-2.458-26.497-6.426-39.491-.76-2.361-2.509-4.428-4.967-5.483-18.048-5.874-18.023 34.098-18.568 45.051-.201 16.691 5.092 32.906 6.851 49.409 1.086 12.878 1.073 26.517.517 39.413-.244 5.022-.613 10.107-1.163 15.168-19.335.462-38.725.91-58.146 1.356 5.655-114.799-4.535-231.472 8.744-345.791 2.353-35.027-2.065-77.669-28.996-101.987 1.156.057 2.314.104 3.469.169 30.69 1.679 57.758 10.123 64.904 43.533 7.992 34.328 4.327 70.461 1.37 105.491-1.017 19.518 28.822 21.276 29.963 1.633 1.147-21.343 1.733-42.948.606-64.434-3.036-65.143-24.616-107.007-95.884-106.497-14.061-.255-27.919.236-41.735.941-20.311-5.859-41.892-6.755-62.918-6.493-13.506.287-26.856 1.182-40.111 2.488-4.226.41-7.872 2.557-10.313 5.653-118.794-5.846-140.764 43.701-129.895 160.54 3.387 46.783.13 93.446 2.361 140.255 1.199 35.334 3.393 70.615 6.614 105.806 2.103 23.427 4.521 46.8 7.647 70.143.214 1.96 1.017 3.509 2.157 4.663.422 2.992 2.574 5.678 6.479 5.613 109.684.204 234.355 1.715 344.513 2.908 38.476.372 76.969.563 115.481.552 8.281-.269 14.776-7.2 14.507-15.481-.268-8.28-7.2-14.775-15.48-14.507zm-452.011-416.911c23.341-27.18 62.364-27.896 96.61-26.482 3.035 4.959 8.821 7.913 14.942 7.029 12.469-1.762 25.015-3.24 37.546-3.92 77.758-4.642 108.774 18.139 105.819 98.628-.443 25.72-3.066 51.294-5.294 76.988-.015 46.961 1.943 93.836 2.645 140.696.578 43.147-.011 86.444-4.977 129.26-82.583 1.902-165.39 3.929-245.859 7.376 4.04-63.57.704-127.192-2.471-190.678-2.415-46.82-5.411-94.403-10.718-141.062-1.992-32.379-8.065-70.014 11.757-97.835z"/><path d="m200.854 267.063c1.755 6.464 11.788 6.474 13.418-.162.907-3.196 1.688-6.386 2.555-9.644 2.594-12.221 7.939-25.371 5.742-38.084-6.086-19.169-35.257-10.024-29.342 9.176 3.775 12.212 4.059 26.289 7.627 38.714z"/><path d="m462.077 233.408c3.523 4.265 7.72 8.804 10.057 13.563-34.285-2.854-70.053-3.504-104.201-5.135-19.574 1.712-17.128 31.539 2.512 29.969 26.273-2.087 55.549-5.587 81.763-8.018l18.735-1.858c-.137.177-.266.354-.414.532-8.933 12.911-22.067 24.516-30.658 38.472-9.242 35.412 64.769-5.72 58.952-44.006-4.155-28.366-32.745-42.402-50.238-62.005-7.3-7.837-19.616 3.66-12.168 11.465 8.334 8.958 17.571 17.882 25.66 27.021z"/></g></svg>