<svg height="512" viewBox="0 0 512 512" width="512" xmlns="http://www.w3.org/2000/svg"><g id="_10.Plus" data-name="10.Plus"><circle cx="256" cy="256" fill="#f7f5fb" r="245"/><path d="m377.1831 211.0023h-76.1853v-76.1853a44.9978 44.9978 0 0 0 -44.9978-44.9976 44.9975 44.9975 0 0 0 -44.9976 44.9976v76.1853h-76.1853a44.9976 44.9976 0 0 0 -44.9978 44.9977 44.9977 44.9977 0 0 0 44.9978 44.9977h76.1853v76.1853a44.9975 44.9975 0 0 0 44.9976 44.9976 44.9977 44.9977 0 0 0 44.9978-44.9976v-76.1853h76.1853a44.9975 44.9975 0 0 0 44.9975-44.9977 44.9974 44.9974 0 0 0 -44.9975-44.9977z" fill="#74d1d1"/><path d="m313.8244 494.134a245.3753 245.3753 0 0 1 -57.82 6.87c-135.31 0-245-109.69-245-245a243.802 243.802 0 0 1 37.7-130.63c24.4499 160.97 125.6598 296.73 265.12 368.76z" fill="#e4e3e8"/><path d="m256.0044 507.004a251.0266 251.0266 0 0 1 -203.9932-397.2807 6 6 0 0 1 9.7461 7.0014 237.29 237.29 0 0 0 -44.7529 139.2793c0 131.7852 107.2148 239 239 239s239-107.2148 239-239-107.2149-239-239-239a239.3793 239.3793 0 0 0 -151.3765 54.0508 6 6 0 0 1 -7.6074-9.2812 251 251 0 1 1 158.9839 445.23z"/><path d="m71.9321 100.3239a6 6 0 0 1 -4.51-9.9541c2.7456-3.1333 5.6128-6.2388 8.522-9.23a6 6 0 1 1 8.6016 8.3672c-2.7645 2.843-5.4896 5.793-8.0985 8.771a5.9866 5.9866 0 0 1 -4.5151 2.0459z"/><path d="m256 428.18a51.0553 51.0553 0 0 1 -50.9976-50.9975v-70.1848h-70.1855a50.9978 50.9978 0 0 1 0-101.9956h70.1855v-70.1851a50.9976 50.9976 0 0 1 101.9951 0v70.1851h70.1856a50.9978 50.9978 0 0 1 0 101.9956h-70.1856v70.1851a51.0553 51.0553 0 0 1 -50.9975 50.9972zm-121.1831-211.1779a38.9978 38.9978 0 0 0 0 77.9956h76.1855a6 6 0 0 1 6 6v76.1851a38.9976 38.9976 0 0 0 77.9951 0v-76.1851a6 6 0 0 1 6-6h76.1856a38.9978 38.9978 0 0 0 0-77.9956h-76.1856a6 6 0 0 1 -6-6v-76.1851a38.9976 38.9976 0 0 0 -77.9951 0v76.1851a6 6 0 0 1 -6 6z"/></g></svg>