<svg id="Capa_1" enable-background="new 0 0 512 512" height="512" viewBox="0 0 512 512" width="512" xmlns="http://www.w3.org/2000/svg" xmlns:xlink="http://www.w3.org/1999/xlink"><linearGradient id="SVGID_1_" gradientUnits="userSpaceOnUse" x1="256" x2="256" y1="512" y2="0"><stop offset="0" stop-color="#fd3a84"/><stop offset="1" stop-color="#ffa68d"/></linearGradient><g><path d="m396 62h-65v-27c0-19.299-15.701-35-35-35h-80c-19.299 0-35 15.701-35 35v27h-65c-30.327 0-55 24.673-55 55v20c0 17.891 13.497 32.681 30.842 34.744l17.523 297.898c1.397 23.753 21.129 42.358 44.922 42.358h203.426c23.793 0 43.525-18.605 44.922-42.357l17.523-297.898c17.345-2.064 30.842-16.854 30.842-34.745v-20c0-30.327-24.673-55-55-55zm-185-27c0-2.757 2.243-5 5-5h80c2.757 0 5 2.243 5 5v27h-90zm161.687 432.881c-.465 7.917-7.043 14.119-14.974 14.119h-203.426c-7.931 0-14.509-6.202-14.974-14.119l-17.405-295.881h268.184zm48.313-330.881c0 2.757-2.243 5-5 5h-320c-2.757 0-5-2.243-5-5v-20c0-13.785 11.215-25 25-25h280c13.785 0 25 11.215 25 25zm-150 80v220c0 8.284-6.716 15-15 15s-15-6.716-15-15v-220c0-8.284 6.716-15 15-15s15 6.716 15 15zm73.229.441-6.471 220c-.243 8.281-7.154 14.796-15.434 14.552-8.281-.244-14.796-7.154-14.553-15.435l6.471-220c.243-8.281 7.154-14.796 15.434-14.552 8.281.244 14.796 7.154 14.553 15.435zm-146.471-.882 6.471 220c.243 8.281-6.272 15.191-14.553 15.435-8.281.244-15.191-6.272-15.434-14.552l-6.471-220c-.243-8.281 6.272-15.191 14.553-15.435 8.281-.244 15.191 6.271 15.434 14.552z" fill="url(#SVGID_1_)"/></g></svg>